<svg xmlns="http://www.w3.org/2000/svg" viewBox="0 0 1600 1000">
  <defs>
    <linearGradient id="sky" x1="0" y1="0" x2="0" y2="1"><stop stop-color="#8aa8ad"/><stop offset=".6" stop-color="#d5d0bd"/><stop offset="1" stop-color="#bc9b75"/></linearGradient>
    <linearGradient id="sea" x1="0" y1="0" x2="0" y2="1"><stop stop-color="#6e9698"/><stop offset="1" stop-color="#173f43"/></linearGradient>
    <filter id="grain"><feTurbulence baseFrequency=".7" numOctaves="3" stitchTiles="stitch"/><feColorMatrix type="saturate" values="0"/><feComponentTransfer><feFuncA type="table" tableValues="0 .08"/></feComponentTransfer></filter>
  </defs>
  <rect width="1600" height="610" fill="url(#sky)"/><rect y="610" width="1600" height="390" fill="url(#sea)"/>
  <path d="M0 665C280 620 440 682 690 648s527-33 910 7v345H0Z" fill="#244c4e" opacity=".45"/>
  <path d="M0 790c260-68 527-84 785-46 270 40 522 26 815-32v288H0Z" fill="#102f32" opacity=".73"/>
  <path d="M1170 620h270l98 380h-515Z" fill="#c0ae8d"/><path d="M1135 713h360" stroke="#f2e7d0" stroke-width="8" opacity=".7"/>
  <g fill="#1b3637"><rect x="1265" y="500" width="18" height="125"/><path d="M1225 500h100l-22-25h-56Z"/><circle cx="1274" cy="470" r="11"/></g>
  <rect width="1600" height="1000" filter="url(#grain)" opacity=".6"/>
</svg>
